<mxfile host="app.diagrams.net" agent="Mozilla/5.0 (Windows NT 10.0; Win64; x64) AppleWebKit/537.36 (KHTML, like Gecko) Chrome/132.0.0.0 Safari/537.36" version="26.0.11">
  <diagram name="Page-1" id="nGtyyMfCIvW21U5ZZ5GF">
    <mxGraphModel dx="1434" dy="738" grid="1" gridSize="10" guides="1" tooltips="1" connect="1" arrows="1" fold="1" page="1" pageScale="1" pageWidth="850" pageHeight="1100" background="light-dark(#929090, #121212)" math="0" shadow="0">
      <root>
        <mxCell id="0" />
        <mxCell id="1" parent="0" />
        <mxCell id="n533Gae6rySACVSOsRBg-6" value="" style="edgeStyle=orthogonalEdgeStyle;rounded=0;orthogonalLoop=1;jettySize=auto;html=1;" edge="1" parent="1" source="n533Gae6rySACVSOsRBg-1" target="n533Gae6rySACVSOsRBg-2">
          <mxGeometry relative="1" as="geometry" />
        </mxCell>
        <mxCell id="n533Gae6rySACVSOsRBg-1" value="&lt;b&gt;&lt;font style=&quot;font-size: 24px;&quot;&gt;start&lt;/font&gt;&lt;/b&gt;" style="ellipse;whiteSpace=wrap;html=1;" vertex="1" parent="1">
          <mxGeometry x="350" y="90" width="120" height="80" as="geometry" />
        </mxCell>
        <mxCell id="n533Gae6rySACVSOsRBg-7" value="" style="edgeStyle=orthogonalEdgeStyle;rounded=0;orthogonalLoop=1;jettySize=auto;html=1;" edge="1" parent="1" source="n533Gae6rySACVSOsRBg-2" target="n533Gae6rySACVSOsRBg-3">
          <mxGeometry relative="1" as="geometry" />
        </mxCell>
        <mxCell id="n533Gae6rySACVSOsRBg-2" value="&lt;strong style=&quot;background-color: transparent; color: rgb(26, 26, 26);&quot;&gt;&lt;font style=&quot;font-size: 24px;&quot;&gt;Pro&lt;span class=&quot;ql-cursor&quot;&gt;﻿&lt;/span&gt;cess&lt;/font&gt;&lt;/strong&gt;" style="rounded=1;whiteSpace=wrap;html=1;" vertex="1" parent="1">
          <mxGeometry x="350" y="220" width="120" height="60" as="geometry" />
        </mxCell>
        <mxCell id="n533Gae6rySACVSOsRBg-8" value="" style="edgeStyle=orthogonalEdgeStyle;rounded=0;orthogonalLoop=1;jettySize=auto;html=1;" edge="1" parent="1" source="n533Gae6rySACVSOsRBg-3" target="n533Gae6rySACVSOsRBg-4">
          <mxGeometry relative="1" as="geometry" />
        </mxCell>
        <mxCell id="n533Gae6rySACVSOsRBg-3" value="&lt;strong style=&quot;background-color: transparent; color: rgb(26, 26, 26);&quot;&gt;&lt;font style=&quot;font-size: 24px;&quot;&gt;Deci&lt;span class=&quot;ql-cursor&quot;&gt;﻿&lt;/span&gt;sion&lt;/font&gt;&lt;/strong&gt;" style="rhombus;whiteSpace=wrap;html=1;" vertex="1" parent="1">
          <mxGeometry x="340" y="330" width="140" height="80" as="geometry" />
        </mxCell>
        <mxCell id="n533Gae6rySACVSOsRBg-9" value="" style="edgeStyle=orthogonalEdgeStyle;rounded=0;orthogonalLoop=1;jettySize=auto;html=1;" edge="1" parent="1" source="n533Gae6rySACVSOsRBg-4" target="n533Gae6rySACVSOsRBg-5">
          <mxGeometry relative="1" as="geometry" />
        </mxCell>
        <mxCell id="n533Gae6rySACVSOsRBg-4" value="&lt;strong style=&quot;color: rgb(26, 26, 26); background-color: transparent;&quot;&gt;&lt;font style=&quot;font-size: 24px;&quot;&gt;out&lt;span class=&quot;ql-cursor&quot;&gt;﻿&lt;/span&gt;put&lt;/font&gt;&lt;/strong&gt;" style="shape=parallelogram;perimeter=parallelogramPerimeter;whiteSpace=wrap;html=1;fixedSize=1;" vertex="1" parent="1">
          <mxGeometry x="350" y="450" width="120" height="60" as="geometry" />
        </mxCell>
        <mxCell id="n533Gae6rySACVSOsRBg-5" value="&lt;strong style=&quot;color: rgb(26, 26, 26); background-color: transparent;&quot;&gt;&lt;font style=&quot;font-size: 24px;&quot;&gt;En&lt;span class=&quot;ql-cursor&quot;&gt;﻿&lt;/span&gt;d&lt;/font&gt;&lt;/strong&gt;" style="ellipse;whiteSpace=wrap;html=1;" vertex="1" parent="1">
          <mxGeometry x="350" y="550" width="120" height="80" as="geometry" />
        </mxCell>
      </root>
    </mxGraphModel>
  </diagram>
</mxfile>
